<mxfile host="app.diagrams.net" modified="2023-11-01T10:04:48.383Z" agent="Mozilla/5.0 (Windows NT 10.0; Win64; x64) AppleWebKit/537.36 (KHTML, like Gecko) Chrome/117.0.0.0 Safari/537.36" version="22.0.8" etag="eljyu4QrENmOVlRAL2-f" type="github">
  <diagram name="Page-1" id="3DBlYrc6kqClXdSm59Ni">
    <mxGraphModel>
      <root>
        <mxCell id="0" />
        <mxCell id="1" parent="0" />
      </root>
    </mxGraphModel>
  </diagram>
</mxfile>
